<?xml version="1.0" encoding="UTF-8" standalone="no"?>
<!-- Created by diasvg.py -->
<svg width="32.950cm" height="31.100cm" viewBox="10.650 6.150 43.600 37.250"
 xmlns="http://www.w3.org/2000/svg"
 xmlns:xlink="http://www.w3.org/1999/xlink">
<rect x="23.650" y="32.190" width="7.650" height="4.960" fill="#FFFFFF" stroke="none" stroke-width="0"/>
<rect x="23.650" y="32.190" width="7.650" height="4.960" fill="none" stroke="#000000" stroke-width="0.100" />
<rect x="15.250" y="32.270" width="7.775" height="4.930" fill="#FFFFFF" stroke="none" stroke-width="0"/>
<rect x="15.250" y="32.270" width="7.775" height="4.930" fill="none" stroke="#000000" stroke-width="0.100" />
<rect x="10.700" y="19.500" width="8.700" height="5.000" fill="#FFFFFF" stroke="none" stroke-width="0"/>
<rect x="10.700" y="19.500" width="8.700" height="5.000" fill="none" stroke="#000000" stroke-width="0.100" />
<rect x="26.100" y="19.150" width="17.450" height="10.750" fill="#FFFFFF" stroke="none" stroke-width="0"/>
<rect x="26.100" y="19.150" width="17.450" height="10.750" fill="none" stroke="#000000" stroke-width="0.100" />
<rect x="18.700" y="6.200" width="8.700" height="11.150" fill="#FFFFFF" stroke="none" stroke-width="0"/>
<rect x="18.700" y="6.200" width="8.700" height="11.150" fill="none" stroke="#000000" stroke-width="0.100" />
<rect x="19.605" y="13.808" width="7.137" height="2.700" fill="#FFFFFF" stroke="none" stroke-width="0"/>
<rect x="19.605" y="13.808" width="7.137" height="2.700" fill="none" stroke="#000000" stroke-width="0.100" />
<text x="23.174" y="14.953"  fill="#000000" text-anchor="middle" font-size="0.80" font-family="sans" font-style="normal" font-weight="400">
Request</text>
<text x="23.174" y="15.753"  fill="#000000" text-anchor="middle" font-size="0.80" font-family="sans" font-style="normal" font-weight="400">
Forwarder</text>
<rect x="24.100" y="33.529" width="6.100" height="2.950" fill="#FFFFFF" stroke="none" stroke-width="0"/>
<rect x="24.100" y="33.529" width="6.100" height="2.950" fill="none" stroke="#000000" stroke-width="0.100" />
<text x="27.150" y="35.199"  fill="#000000" text-anchor="middle" font-size="0.80" font-family="sans" font-style="normal" font-weight="400">
Event log</text>
<rect x="15.950" y="33.529" width="5.850" height="2.900" fill="#FFFFFF" stroke="none" stroke-width="0"/>
<rect x="15.950" y="33.529" width="5.850" height="2.900" fill="none" stroke="#000000" stroke-width="0.100" />
<text x="18.875" y="35.174"  fill="#000000" text-anchor="middle" font-size="0.80" font-family="sans" font-style="normal" font-weight="400">
Item Store</text>
<rect x="37.000" y="20.310" width="4.133" height="2.700" fill="#FFFFFF" stroke="none" stroke-width="0"/>
<rect x="37.000" y="20.310" width="4.133" height="2.700" fill="none" stroke="#000000" stroke-width="0.100" />
<text x="39.066" y="21.455"  fill="#000000" text-anchor="middle" font-size="0.80" font-family="sans" font-style="normal" font-weight="400">
Payment</text>
<text x="39.066" y="22.255"  fill="#000000" text-anchor="middle" font-size="0.80" font-family="sans" font-style="normal" font-weight="400">
Adapter</text>
<rect x="27.078" y="20.328" width="6.422" height="2.700" fill="#FFFFFF" stroke="none" stroke-width="0"/>
<rect x="27.078" y="20.328" width="6.422" height="2.700" fill="none" stroke="#000000" stroke-width="0.100" />
<text x="30.289" y="21.473"  fill="#000000" text-anchor="middle" font-size="0.80" font-family="sans" font-style="normal" font-weight="400">
Transaction</text>
<text x="30.289" y="22.273"  fill="#000000" text-anchor="middle" font-size="0.80" font-family="sans" font-style="normal" font-weight="400">
Handler</text>
<rect x="12.098" y="20.811" width="6.302" height="2.700" fill="#FFFFFF" stroke="none" stroke-width="0"/>
<rect x="12.098" y="20.811" width="6.302" height="2.700" fill="none" stroke="#000000" stroke-width="0.100" />
<text x="15.249" y="21.956"  fill="#000000" text-anchor="middle" font-size="0.80" font-family="sans" font-style="normal" font-weight="400">
Query</text>
<text x="15.249" y="22.756"  fill="#000000" text-anchor="middle" font-size="0.80" font-family="sans" font-style="normal" font-weight="400">
Handler</text>
<rect x="36.000" y="25.808" width="6.502" height="3.500" fill="#FFFFFF" stroke="none" stroke-width="0"/>
<rect x="36.000" y="25.808" width="6.502" height="3.500" fill="none" stroke="#000000" stroke-width="0.100" />
<text x="39.251" y="26.953"  fill="#000000" text-anchor="middle" font-size="0.80" font-family="sans" font-style="normal" font-weight="400">
External</text>
<text x="39.251" y="27.753"  fill="#000000" text-anchor="middle" font-size="0.80" font-family="sans" font-style="normal" font-weight="400">
Payment</text>
<text x="39.251" y="28.553"  fill="#000000" text-anchor="middle" font-size="0.80" font-family="sans" font-style="normal" font-weight="400">
Interface</text>
<rect x="19.565" y="7.633" width="7.137" height="2.700" fill="#FFFFFF" stroke="none" stroke-width="0"/>
<rect x="19.565" y="7.633" width="7.137" height="2.700" fill="none" stroke="#000000" stroke-width="0.100" />
<text x="23.134" y="8.778"  fill="#000000" text-anchor="middle" font-size="0.80" font-family="sans" font-style="normal" font-weight="400">
Webserver</text>
<text x="23.134" y="9.578"  fill="#000000" text-anchor="middle" font-size="0.80" font-family="sans" font-style="normal" font-weight="400">
(HTML)</text>
<text x="21.800" y="7.100"  fill="#000000" text-anchor="start" font-size="0.80" font-family="sans" font-style="normal" font-weight="400">
Process</text>
<line x1="23.134" y1="10.332" x2="23.171" y2="13.585" stroke="#000000" stroke-width="0.100" />
<polyline fill="none" stroke="#000000" stroke-width="0.100"  points="22.917,13.199 23.172,13.696 23.417,13.193 "/>
<line x1="23.174" y1="16.508" x2="15.445" y2="20.705" stroke="#000000" stroke-width="0.100" />
<polyline fill="none" stroke="#000000" stroke-width="0.100"  points="15.667,20.300 15.347,20.758 15.906,20.739 "/>
<line x1="23.174" y1="16.508" x2="30.092" y2="20.223" stroke="#000000" stroke-width="0.100" />
<polyline fill="none" stroke="#000000" stroke-width="0.100"  points="29.632,20.259 30.190,20.276 29.868,19.819 "/>
<line x1="30.289" y1="23.029" x2="27.214" y2="33.315" stroke="#000000" stroke-width="0.100" />
<polyline fill="none" stroke="#000000" stroke-width="0.100"  points="27.086,32.871 27.182,33.422 27.565,33.015 "/>
<line x1="15.249" y1="23.511" x2="18.799" y2="33.319" stroke="#000000" stroke-width="0.100" />
<polyline fill="none" stroke="#000000" stroke-width="0.100"  points="18.432,33.039 18.837,33.424 18.902,32.869 "/>
<line x1="15.249" y1="23.511" x2="25.410" y2="33.323" stroke="#000000" stroke-width="0.100" />
<polyline fill="none" stroke="#000000" stroke-width="0.100"  points="24.957,33.234 25.490,33.401 25.304,32.874 "/>
<line x1="30.289" y1="23.029" x2="20.462" y2="33.317" stroke="#000000" stroke-width="0.100" />
<polyline fill="none" stroke="#000000" stroke-width="0.100"  points="20.549,32.864 20.385,33.398 20.911,33.209 "/>
<line x1="33.500" y1="21.678" x2="36.776" y2="21.661" stroke="#000000" stroke-width="0.100" />
<polyline fill="none" stroke="#000000" stroke-width="0.100"  points="36.389,21.913 36.888,21.660 36.386,21.413 "/>
<line x1="39.066" y1="23.010" x2="39.236" y2="25.584" stroke="#000000" stroke-width="0.100" />
<polyline fill="none" stroke="#000000" stroke-width="0.100"  points="38.961,25.214 39.244,25.696 39.460,25.181 "/>
<text x="11.225" y="20.365"  fill="#000000" text-anchor="start" font-size="0.80" font-family="sans" font-style="normal" font-weight="400">
Process group</text>
<text x="32.575" y="19.915"  fill="#000000" text-anchor="start" font-size="0.80" font-family="sans" font-style="normal" font-weight="400">
Process group</text>
<text x="15.700" y="32.985"  fill="#000000" text-anchor="start" font-size="0.80" font-family="sans" font-style="normal" font-weight="400">
Process</text>
<text x="28.075" y="33.055"  fill="#000000" text-anchor="start" font-size="0.80" font-family="sans" font-style="normal" font-weight="400">
Process</text>
</svg>