<?xml version="1.0" encoding="UTF-8" standalone="no"?>
<!-- Created by diasvg.py -->
<svg width="23.855cm" height="31.269cm" viewBox="15.598 0.760 39.452 32.029"
 xmlns="http://www.w3.org/2000/svg"
 xmlns:xlink="http://www.w3.org/1999/xlink">
<path stroke="none" fill="#FFFFFF" stroke-width="0.100" d="M 25.184,2.131 C 24.662,2.115 23.650,2.450 23.792,3.167 C 23.935,3.884 24.615,4.043 24.899,3.836 C 25.184,3.629 24.457,4.840 25.848,5.159 C 27.240,5.478 27.952,4.968 27.746,4.601 C 27.541,4.234 28.964,5.462 29.628,4.760 C 30.293,4.059 28.948,3.390 29.233,3.485 C 29.518,3.581 30.387,3.454 30.103,2.258 C 29.818,1.063 27.256,1.987 27.541,1.812 C 27.825,1.637 27.114,0.760 26.228,0.936 C 25.342,1.111 25.279,1.429 25.185,2.130 L 25.184,2.131 "/>
<path stroke="#000000" fill="none" stroke-width="0.100"  d="M 25.184,2.131 C 24.662,2.115 23.650,2.450 23.792,3.167 C 23.935,3.884 24.615,4.043 24.899,3.836 C 25.184,3.629 24.457,4.840 25.848,5.159 C 27.240,5.478 27.952,4.968 27.746,4.601 C 27.541,4.234 28.964,5.462 29.628,4.760 C 30.293,4.059 28.948,3.390 29.233,3.485 C 29.518,3.581 30.387,3.454 30.103,2.258 C 29.818,1.063 27.256,1.987 27.541,1.812 C 27.825,1.637 27.114,0.760 26.228,0.936 C 25.342,1.111 25.279,1.429 25.185,2.130 L 25.184,2.131 "/>
<text x="27.199" y="3.402"  fill="#000000" text-anchor="middle" font-size="0.80" font-family="sans" font-style="normal" font-weight="400">
Users</text>
<rect x="19.605" y="13.808" width="7.137" height="2.700" fill="#FFFFFF" stroke="none" stroke-width="0"/>
<rect x="19.605" y="13.808" width="7.137" height="2.700" fill="none" stroke="#000000" stroke-width="0.100" />
<text x="23.174" y="14.953"  fill="#000000" text-anchor="middle" font-size="0.80" font-family="sans" font-style="normal" font-weight="400">
Request</text>
<text x="23.174" y="15.753"  fill="#000000" text-anchor="middle" font-size="0.80" font-family="sans" font-style="normal" font-weight="400">
Forwarder</text>
<rect x="24.150" y="29.029" width="6.100" height="2.950" fill="#FFFFFF" stroke="none" stroke-width="0"/>
<rect x="24.150" y="29.029" width="6.100" height="2.950" fill="none" stroke="#000000" stroke-width="0.100" />
<text x="27.200" y="30.699"  fill="#000000" text-anchor="middle" font-size="0.80" font-family="sans" font-style="normal" font-weight="400">
Event log</text>
<rect x="15.900" y="29.079" width="5.850" height="2.900" fill="#FFFFFF" stroke="none" stroke-width="0"/>
<rect x="15.900" y="29.079" width="5.850" height="2.900" fill="none" stroke="#000000" stroke-width="0.100" />
<text x="18.825" y="30.724"  fill="#000000" text-anchor="middle" font-size="0.80" font-family="sans" font-style="normal" font-weight="400">
Item Store</text>
<rect x="33.900" y="20.210" width="4.133" height="2.700" fill="#FFFFFF" stroke="none" stroke-width="0"/>
<rect x="33.900" y="20.210" width="4.133" height="2.700" fill="none" stroke="#000000" stroke-width="0.100" />
<text x="35.966" y="21.355"  fill="#000000" text-anchor="middle" font-size="0.80" font-family="sans" font-style="normal" font-weight="400">
Payment</text>
<text x="35.966" y="22.155"  fill="#000000" text-anchor="middle" font-size="0.80" font-family="sans" font-style="normal" font-weight="400">
Adapter</text>
<rect x="23.978" y="20.228" width="6.422" height="2.700" fill="#FFFFFF" stroke="none" stroke-width="0"/>
<rect x="23.978" y="20.228" width="6.422" height="2.700" fill="none" stroke="#000000" stroke-width="0.100" />
<text x="27.189" y="21.373"  fill="#000000" text-anchor="middle" font-size="0.80" font-family="sans" font-style="normal" font-weight="400">
Transaction</text>
<text x="27.189" y="22.173"  fill="#000000" text-anchor="middle" font-size="0.80" font-family="sans" font-style="normal" font-weight="400">
Handler</text>
<rect x="15.648" y="20.311" width="6.302" height="2.700" fill="#FFFFFF" stroke="none" stroke-width="0"/>
<rect x="15.648" y="20.311" width="6.302" height="2.700" fill="none" stroke="#000000" stroke-width="0.100" />
<text x="18.799" y="21.456"  fill="#000000" text-anchor="middle" font-size="0.80" font-family="sans" font-style="normal" font-weight="400">
Query</text>
<text x="18.799" y="22.256"  fill="#000000" text-anchor="middle" font-size="0.80" font-family="sans" font-style="normal" font-weight="400">
Handler</text>
<path stroke="none" fill="#FFFFFF" stroke-width="0.100" d="M 17.425,2.174 C 16.907,2.158 15.902,2.494 16.044,3.212 C 16.185,3.931 16.860,4.090 17.142,3.883 C 17.425,3.675 16.703,4.889 18.084,5.208 C 19.465,5.528 20.171,5.017 19.967,4.649 C 19.763,4.282 21.175,5.512 21.834,4.809 C 22.493,4.106 21.159,3.436 21.442,3.531 C 21.724,3.627 22.588,3.500 22.305,2.302 C 22.023,1.104 19.480,2.030 19.763,1.855 C 20.045,1.679 19.339,0.801 18.460,0.977 C 17.582,1.152 17.519,1.471 17.425,2.174 L 17.425,2.174 "/>
<path stroke="#000000" fill="none" stroke-width="0.100"  d="M 17.425,2.174 C 16.907,2.158 15.902,2.494 16.044,3.212 C 16.185,3.931 16.860,4.090 17.142,3.883 C 17.425,3.675 16.703,4.889 18.084,5.208 C 19.465,5.528 20.171,5.017 19.967,4.649 C 19.763,4.282 21.175,5.512 21.834,4.809 C 22.493,4.106 21.159,3.436 21.442,3.531 C 21.724,3.627 22.588,3.500 22.305,2.302 C 22.023,1.104 19.480,2.030 19.763,1.855 C 20.045,1.679 19.339,0.801 18.460,0.977 C 17.582,1.152 17.519,1.471 17.425,2.174 L 17.425,2.174 "/>
<text x="19.424" y="3.448"  fill="#000000" text-anchor="middle" font-size="0.80" font-family="sans" font-style="normal" font-weight="400">
Admins</text>
<line x1="18.799" y1="20.311" x2="20.224" y2="19.150" stroke="#000000" stroke-width="0.100" />
<path stroke="none" fill="#FFFFFF" stroke-width="0.100" d="M 20.611,18.834 C 20.690,18.931 20.672,19.107 20.575,19.186 C 20.479,19.265 20.303,19.247 20.224,19.150 C 20.145,19.053 20.163,18.877 20.260,18.798 C 20.356,18.719 20.532,18.737 20.611,18.834 "/>
<path stroke="#000000" fill="none" stroke-width="0.100"  d="M 20.611,18.834 C 20.690,18.931 20.672,19.107 20.575,19.186 C 20.479,19.265 20.303,19.247 20.224,19.150 C 20.145,19.053 20.163,18.877 20.260,18.798 C 20.356,18.719 20.532,18.737 20.611,18.834 "/>
<line x1="27.189" y1="20.228" x2="26.157" y2="19.021" stroke="#000000" stroke-width="0.100" />
<path stroke="none" fill="#FFFFFF" stroke-width="0.100" d="M 25.832,18.641 C 25.928,18.559 26.104,18.573 26.185,18.668 C 26.266,18.763 26.252,18.940 26.157,19.021 C 26.062,19.102 25.886,19.088 25.805,18.993 C 25.724,18.898 25.737,18.722 25.832,18.641 "/>
<path stroke="#000000" fill="none" stroke-width="0.100"  d="M 25.832,18.641 C 25.928,18.559 26.104,18.573 26.185,18.668 C 26.266,18.763 26.252,18.940 26.157,19.021 C 26.062,19.102 25.886,19.088 25.805,18.993 C 25.724,18.898 25.737,18.722 25.832,18.641 "/>
<line x1="18.825" y1="29.079" x2="18.886" y2="26.702" stroke="#000000" stroke-width="0.100" />
<path stroke="none" fill="#FFFFFF" stroke-width="0.100" d="M 18.899,26.202 C 19.024,26.206 19.145,26.334 19.142,26.459 C 19.139,26.584 19.011,26.706 18.886,26.702 C 18.761,26.699 18.639,26.571 18.642,26.446 C 18.646,26.321 18.774,26.199 18.899,26.202 "/>
<path stroke="#000000" fill="none" stroke-width="0.100"  d="M 18.899,26.202 C 19.024,26.206 19.145,26.334 19.142,26.459 C 19.139,26.584 19.011,26.706 18.886,26.702 C 18.761,26.699 18.639,26.571 18.642,26.446 C 18.646,26.321 18.774,26.199 18.899,26.202 "/>
<line x1="27.200" y1="29.029" x2="27.200" y2="26.703" stroke="#000000" stroke-width="0.100" />
<path stroke="none" fill="#FFFFFF" stroke-width="0.100" d="M 27.200,26.203 C 27.325,26.203 27.450,26.328 27.450,26.453 C 27.450,26.578 27.325,26.703 27.200,26.703 C 27.075,26.703 26.950,26.578 26.950,26.453 C 26.950,26.328 27.075,26.203 27.200,26.203 "/>
<path stroke="#000000" fill="none" stroke-width="0.100"  d="M 27.200,26.203 C 27.325,26.203 27.450,26.328 27.450,26.453 C 27.450,26.578 27.325,26.703 27.200,26.703 C 27.075,26.703 26.950,26.578 26.950,26.453 C 26.950,26.328 27.075,26.203 27.200,26.203 "/>
<line x1="23.174" y1="16.508" x2="20.869" y2="18.615" stroke="#000000" stroke-width="0.100" />
<path stroke="#000000" fill="none" stroke-width="0.100"  d ="M 20.853,18.968 A 0.250,0.250 0 1,0 20.516,18.599 "/>
<line x1="23.174" y1="16.508" x2="25.608" y2="18.442" stroke="#000000" stroke-width="0.100" />
<path stroke="#000000" fill="none" stroke-width="0.100"  d ="M 25.960,18.401 A 0.250,0.250 0 1,0 25.649,18.793 "/>
<line x1="18.799" y1="23.011" x2="18.842" y2="25.911" stroke="#000000" stroke-width="0.100" />
<path stroke="#000000" fill="none" stroke-width="0.100"  d ="M 19.096,26.158 A 0.250,0.250 0 1,0 18.596,26.165 "/>
<line x1="27.189" y1="22.928" x2="27.241" y2="25.903" stroke="#000000" stroke-width="0.100" />
<path stroke="#000000" fill="none" stroke-width="0.100"  d ="M 27.496,26.148 A 0.250,0.250 0 1,0 26.996,26.157 "/>
<line x1="27.189" y1="22.928" x2="24.927" y2="24.901" stroke="#000000" stroke-width="0.100" />
<path stroke="#000000" fill="none" stroke-width="0.100"  d ="M 24.903,25.253 A 0.250,0.250 0 1,0 24.574,24.876 "/>
<line x1="18.799" y1="23.011" x2="21.543" y2="24.971" stroke="#000000" stroke-width="0.100" />
<path stroke="#000000" fill="none" stroke-width="0.100"  d ="M 21.892,24.912 A 0.250,0.250 0 1,0 21.601,25.319 "/>
<line x1="33.900" y1="21.560" x2="32.250" y2="21.592" stroke="#000000" stroke-width="0.100" />
<path stroke="none" fill="#FFFFFF" stroke-width="0.100" d="M 31.750,21.602 C 31.748,21.477 31.870,21.349 31.995,21.347 C 32.120,21.344 32.247,21.467 32.250,21.592 C 32.252,21.717 32.130,21.844 32.005,21.847 C 31.880,21.849 31.752,21.727 31.750,21.602 "/>
<path stroke="#000000" fill="none" stroke-width="0.100"  d="M 31.750,21.602 C 31.748,21.477 31.870,21.349 31.995,21.347 C 32.120,21.344 32.247,21.467 32.250,21.592 C 32.252,21.717 32.130,21.844 32.005,21.847 C 31.880,21.849 31.752,21.727 31.750,21.602 "/>
<line x1="30.400" y1="21.578" x2="31.400" y2="21.586" stroke="#000000" stroke-width="0.100" />
<path stroke="#000000" fill="none" stroke-width="0.100"  d ="M 31.652,21.338 A 0.250,0.250 0 1,0 31.648,21.838 "/>
<line x1="26.673" y1="5.261" x2="24.918" y2="7.633" stroke="#000000" stroke-width="0.100" />
<line x1="18.902" y1="5.311" x2="21.349" y2="7.633" stroke="#000000" stroke-width="0.100" />
<line x1="18.825" y1="29.079" x2="24.195" y2="25.438" stroke="#000000" stroke-width="0.100" />
<path stroke="none" fill="#FFFFFF" stroke-width="0.100" d="M 24.609,25.157 C 24.679,25.261 24.645,25.434 24.542,25.504 C 24.439,25.575 24.265,25.541 24.195,25.438 C 24.125,25.334 24.158,25.161 24.261,25.091 C 24.365,25.020 24.538,25.054 24.609,25.157 "/>
<path stroke="#000000" fill="none" stroke-width="0.100"  d="M 24.609,25.157 C 24.679,25.261 24.645,25.434 24.542,25.504 C 24.439,25.575 24.265,25.541 24.195,25.438 C 24.125,25.334 24.158,25.161 24.261,25.091 C 24.365,25.020 24.538,25.054 24.609,25.157 "/>
<line x1="27.200" y1="29.029" x2="22.298" y2="25.531" stroke="#000000" stroke-width="0.100" />
<path stroke="none" fill="#FFFFFF" stroke-width="0.100" d="M 21.891,25.240 C 21.963,25.138 22.138,25.109 22.239,25.182 C 22.341,25.254 22.370,25.429 22.298,25.531 C 22.225,25.632 22.051,25.661 21.949,25.589 C 21.847,25.516 21.818,25.342 21.891,25.240 "/>
<path stroke="#000000" fill="none" stroke-width="0.100"  d="M 21.891,25.240 C 21.963,25.138 22.138,25.109 22.239,25.182 C 22.341,25.254 22.370,25.429 22.298,25.531 C 22.225,25.632 22.051,25.661 21.949,25.589 C 21.847,25.516 21.818,25.342 21.891,25.240 "/>
<rect x="32.900" y="25.708" width="6.502" height="3.500" fill="#FFFFFF" stroke="none" stroke-width="0"/>
<rect x="32.900" y="25.708" width="6.502" height="3.500" fill="none" stroke="#000000" stroke-width="0.100" />
<text x="36.151" y="26.853"  fill="#000000" text-anchor="middle" font-size="0.80" font-family="sans" font-style="normal" font-weight="400">
External</text>
<text x="36.151" y="27.653"  fill="#000000" text-anchor="middle" font-size="0.80" font-family="sans" font-style="normal" font-weight="400">
Payment</text>
<text x="36.151" y="28.453"  fill="#000000" text-anchor="middle" font-size="0.80" font-family="sans" font-style="normal" font-weight="400">
Interface</text>
<rect x="19.565" y="7.633" width="7.137" height="2.700" fill="#FFFFFF" stroke="none" stroke-width="0"/>
<rect x="19.565" y="7.633" width="7.137" height="2.700" fill="none" stroke="#000000" stroke-width="0.100" />
<text x="23.134" y="8.778"  fill="#000000" text-anchor="middle" font-size="0.80" font-family="sans" font-style="normal" font-weight="400">
Webserver</text>
<text x="23.134" y="9.578"  fill="#000000" text-anchor="middle" font-size="0.80" font-family="sans" font-style="normal" font-weight="400">
(HTML)</text>
<line x1="23.134" y1="10.333" x2="23.220" y2="11.741" stroke="#000000" stroke-width="0.100" />
<path stroke="#000000" fill="none" stroke-width="0.100"  d ="M 23.484,11.975 A 0.250,0.250 0 1,0 22.985,12.005 "/>
<line x1="23.174" y1="13.808" x2="23.261" y2="12.589" stroke="#000000" stroke-width="0.100" />
<path stroke="none" fill="#FFFFFF" stroke-width="0.100" d="M 23.296,12.090 C 23.421,12.099 23.537,12.232 23.528,12.357 C 23.519,12.482 23.386,12.598 23.261,12.589 C 23.136,12.580 23.020,12.446 23.029,12.321 C 23.038,12.197 23.172,12.081 23.296,12.090 "/>
<path stroke="#000000" fill="none" stroke-width="0.100"  d="M 23.296,12.090 C 23.421,12.099 23.537,12.232 23.528,12.357 C 23.519,12.482 23.386,12.598 23.261,12.589 C 23.136,12.580 23.020,12.446 23.029,12.321 C 23.038,12.197 23.172,12.081 23.296,12.090 "/>
<line x1="36.151" y1="25.708" x2="36.059" y2="24.849" stroke="#000000" stroke-width="0.100" />
<path stroke="none" fill="#FFFFFF" stroke-width="0.100" d="M 36.005,24.352 C 36.130,24.339 36.267,24.450 36.281,24.574 C 36.294,24.698 36.183,24.836 36.059,24.849 C 35.935,24.863 35.797,24.752 35.784,24.628 C 35.770,24.503 35.881,24.366 36.005,24.352 "/>
<path stroke="#000000" fill="none" stroke-width="0.100"  d="M 36.005,24.352 C 36.130,24.339 36.267,24.450 36.281,24.574 C 36.294,24.698 36.183,24.836 36.059,24.849 C 35.935,24.863 35.797,24.752 35.784,24.628 C 35.770,24.503 35.881,24.366 36.005,24.352 "/>
<line x1="35.966" y1="22.910" x2="35.989" y2="24.003" stroke="#000000" stroke-width="0.100" />
<path stroke="#000000" fill="none" stroke-width="0.100"  d ="M 36.245,24.247 A 0.250,0.250 0 1,0 35.745,24.258 "/>
</svg>