<?xml version="1.0" encoding="UTF-8" standalone="no"?>
<!-- Created by diasvg.py -->
<svg width="44.991cm" height="7.700cm" viewBox="14.067 15.400 59.058 23.100"
 xmlns="http://www.w3.org/2000/svg"
 xmlns:xlink="http://www.w3.org/1999/xlink">
<path stroke="none" fill="#FFFFFF" stroke-width="0.100" d="M 18.064,20.750 L 25.086,20.750 C 26.056,20.750 26.842,21.265 26.842,21.900 C 26.842,22.535 26.056,23.050 25.086,23.050 L 18.064,23.050 C 17.094,23.050 16.308,22.535 16.308,21.900 C 16.308,21.265 17.094,20.750 18.064,20.750 "/>
<path stroke="#000000" fill="none" stroke-width="0.100"  d="M 18.064,20.750 L 25.086,20.750 C 26.056,20.750 26.842,21.265 26.842,21.900 C 26.842,22.535 26.056,23.050 25.086,23.050 L 18.064,23.050 C 17.094,23.050 16.308,22.535 16.308,21.900 C 16.308,21.265 17.094,20.750 18.064,20.750 "/>
<text x="21.575" y="22.100"  fill="#000000" text-anchor="middle" font-size="0.80" font-family="sans" font-style="normal" font-weight="400">
Information provided</text>
<path stroke="none" fill="#FFFFFF" stroke-width="0.100" d="M 31.875,21.000 L 40.425,21.000 C 41.606,21.000 42.563,21.448 42.563,22.000 C 42.563,22.552 41.606,23.000 40.425,23.000 L 31.875,23.000 C 30.694,23.000 29.738,22.552 29.738,22.000 C 29.738,21.448 30.694,21.000 31.875,21.000 "/>
<path stroke="#000000" fill="none" stroke-width="0.100"  d="M 31.875,21.000 L 40.425,21.000 C 41.606,21.000 42.563,21.448 42.563,22.000 C 42.563,22.552 41.606,23.000 40.425,23.000 L 31.875,23.000 C 30.694,23.000 29.738,22.552 29.738,22.000 C 29.738,21.448 30.694,21.000 31.875,21.000 "/>
<text x="36.150" y="22.200"  fill="#000000" text-anchor="middle" font-size="0.80" font-family="sans" font-style="normal" font-weight="400">
Data saved persistently</text>
<path stroke="none" fill="#FFFFFF" stroke-width="0.100" d="M 34.252,16.650 L 38.947,16.650 C 39.596,16.650 40.121,17.075 40.121,17.600 C 40.121,18.125 39.596,18.550 38.947,18.550 L 34.252,18.550 C 33.604,18.550 33.079,18.125 33.079,17.600 C 33.079,17.075 33.604,16.650 34.252,16.650 "/>
<path stroke="#000000" fill="none" stroke-width="0.100"  d="M 34.252,16.650 L 38.947,16.650 C 39.596,16.650 40.121,17.075 40.121,17.600 C 40.121,18.125 39.596,18.550 38.947,18.550 L 34.252,18.550 C 33.604,18.550 33.079,18.125 33.079,17.600 C 33.079,17.075 33.604,16.650 34.252,16.650 "/>
<text x="36.600" y="17.800"  fill="#000000" text-anchor="middle" font-size="0.80" font-family="sans" font-style="normal" font-weight="400">
Data updated</text>
<path stroke="none" fill="#FFFFFF" stroke-width="0.100" d="M 48.326,20.900 L 54.074,20.900 C 54.867,20.900 55.511,21.348 55.511,21.900 C 55.511,22.452 54.867,22.900 54.074,22.900 L 48.326,22.900 C 47.533,22.900 46.889,22.452 46.889,21.900 C 46.889,21.348 47.533,20.900 48.326,20.900 "/>
<path stroke="#000000" fill="none" stroke-width="0.100"  d="M 48.326,20.900 L 54.074,20.900 C 54.867,20.900 55.511,21.348 55.511,21.900 C 55.511,22.452 54.867,22.900 54.074,22.900 L 48.326,22.900 C 47.533,22.900 46.889,22.452 46.889,21.900 C 46.889,21.348 47.533,20.900 48.326,20.900 "/>
<text x="51.200" y="22.100"  fill="#000000" text-anchor="middle" font-size="0.80" font-family="sans" font-style="normal" font-weight="400">
Data deleted</text>
<line x1="26.888" y1="22.100" x2="29.251" y2="22.017" stroke="#000000" stroke-width="0.100" />
<polygon fill="#000000" stroke="none" stroke-width="0.100" points="29.626,22.004 29.135,22.271 29.251,22.017 29.117,21.772 "/>
<polygon fill="none" stroke="#000000" stroke-width="0.100"  points="29.626,22.004 29.135,22.271 29.251,22.017 29.117,21.772 "/>
<line x1="34.013" y1="21.000" x2="34.205" y2="19.034" stroke="#000000" stroke-width="0.100" />
<polygon fill="#000000" stroke="none" stroke-width="0.100" points="34.242,18.661 34.442,19.183 34.205,19.034 33.944,19.135 "/>
<polygon fill="none" stroke="#000000" stroke-width="0.100"  points="34.242,18.661 34.442,19.183 34.205,19.034 33.944,19.135 "/>
<line x1="37.774" y1="18.550" x2="38.188" y2="20.524" stroke="#000000" stroke-width="0.100" />
<polygon fill="#000000" stroke="none" stroke-width="0.100" points="38.265,20.891 37.917,20.453 38.188,20.524 38.407,20.350 "/>
<polygon fill="none" stroke="#000000" stroke-width="0.100"  points="38.265,20.891 37.917,20.453 38.188,20.524 38.407,20.350 "/>
<line x1="42.563" y1="22.000" x2="46.403" y2="21.911" stroke="#000000" stroke-width="0.100" />
<polygon fill="#000000" stroke="none" stroke-width="0.100" points="46.778,21.903 46.284,22.164 46.403,21.911 46.272,21.664 "/>
<polygon fill="none" stroke="#000000" stroke-width="0.100"  points="46.778,21.903 46.284,22.164 46.403,21.911 46.272,21.664 "/>
<rect x="43.560" y="15.450" width="7.755" height="2.700" fill="#FFFFFF" stroke="none" stroke-width="0"/>
<rect x="43.560" y="15.450" width="7.755" height="2.700" fill="none" stroke="#000000" stroke-width="0.100" />
<text x="47.438" y="16.995"  fill="#000000" text-anchor="middle" font-size="0.80" font-family="sans" font-style="normal" font-weight="400">
After couple of years</text>
<line x1="44.726" y1="21.950" x2="47.155" y2="18.546" stroke="#000000" stroke-width="0.100" stroke-dasharray="1.00,1.00"/>
<polygon fill="#000000" stroke="none" stroke-width="0.100" points="47.373,18.241 47.286,18.793 47.155,18.546 46.879,18.503 "/>
<polygon fill="none" stroke="#000000" stroke-width="0.100"  points="47.373,18.241 47.286,18.793 47.155,18.546 46.879,18.503 "/>
<line x1="55.511" y1="21.900" x2="58.438" y2="21.900" stroke="#000000" stroke-width="0.100" />
<path stroke="none" fill="#FFFFFF" stroke-width="0.100" d="M 58.938,21.900 C 58.938,22.025 58.813,22.150 58.688,22.150 C 58.563,22.150 58.438,22.025 58.438,21.900 C 58.438,21.775 58.563,21.650 58.688,21.650 C 58.813,21.650 58.938,21.775 58.938,21.900 "/>
<path stroke="#000000" fill="none" stroke-width="0.100"  d="M 58.938,21.900 C 58.938,22.025 58.813,22.150 58.688,22.150 C 58.563,22.150 58.438,22.025 58.438,21.900 C 58.438,21.775 58.563,21.650 58.688,21.650 C 58.813,21.650 58.938,21.775 58.938,21.900 "/>
<line x1="16.308" y1="21.900" x2="14.138" y2="21.850" stroke="#000000" stroke-width="0.100" />
<path stroke="none" fill="#000000" stroke-width="0.100" d="M 14.138,21.850 C 14.140,21.725 14.268,21.603 14.393,21.606 C 14.518,21.609 14.640,21.737 14.637,21.862 C 14.634,21.986 14.507,22.109 14.382,22.106 C 14.257,22.103 14.135,21.975 14.138,21.850 "/>
<path stroke="#000000" fill="none" stroke-width="0.100"  d="M 14.138,21.850 C 14.140,21.725 14.268,21.603 14.393,21.606 C 14.518,21.609 14.640,21.737 14.637,21.862 C 14.634,21.986 14.507,22.109 14.382,22.106 C 14.257,22.103 14.135,21.975 14.138,21.850 "/>
</svg>