<?xml version="1.0" encoding="UTF-8" standalone="no"?>
<!-- Created by diasvg.py -->
<svg width="34.256cm" height="27.400cm" viewBox="7.850 3.119 42.106 30.519"
 xmlns="http://www.w3.org/2000/svg"
 xmlns:xlink="http://www.w3.org/1999/xlink">
<line x1="18.821" y1="4.569" x2="18.821" y2="6.019" stroke="#000000" stroke-width="0.050" stroke-dasharray="0.40,0.40"/>
<line x1="18.821" y1="20.019" x2="18.821" y2="29.769" stroke="#000000" stroke-width="0.050" stroke-dasharray="0.40,0.40"/>
<rect x="18.471" y="6.019" width="0.700" height="14.000" fill="#FFFFFF" stroke="none" stroke-width="0"/>
<rect x="18.471" y="6.019" width="0.700" height="14.000" fill="none" stroke="#000000" stroke-width="0.100" />
<line x1="25.466" y1="4.569" x2="25.466" y2="15.994" stroke="#000000" stroke-width="0.050" stroke-dasharray="0.40,0.40"/>
<line x1="25.466" y1="21.994" x2="25.466" y2="29.869" stroke="#000000" stroke-width="0.050" stroke-dasharray="0.40,0.40"/>
<rect x="25.116" y="15.994" width="0.700" height="6.000" fill="#FFFFFF" stroke="none" stroke-width="0"/>
<rect x="25.116" y="15.994" width="0.700" height="6.000" fill="none" stroke="#000000" stroke-width="0.100" />
<line x1="30.704" y1="7.042" x2="19.171" y2="7.019" stroke="#000000" stroke-width="0.100" />
<polygon fill="#000000" stroke="none" stroke-width="0.100" points="30.703,7.292 31.504,7.044 30.704,6.792 "/>
<polygon fill="none" stroke="#000000" stroke-width="0.100"  points="30.703,7.292 31.504,7.044 30.704,6.792 "/>
<text x="26.619" y="6.828"  fill="#000000" text-anchor="middle" font-size="0.80" font-family="sans" font-style="normal" font-weight="400">
Authenticate</text>
<ellipse cx="9.150" cy="6.900" rx="0.300" ry="0.300" fill="#FFFFFF" stroke="none"  /><ellipse cx="9.150" cy="6.900" rx="0.300" ry="0.300" fill="none" stroke="#000000"  stroke-width="0.100" /><line x1="7.950" y1="7.500" x2="10.350" y2="7.500" stroke="#000000" stroke-width="0.100" />
<line x1="9.150" y1="7.200" x2="9.150" y2="8.700" stroke="#000000" stroke-width="0.100" />
<line x1="9.150" y1="8.700" x2="7.950" y2="10.000" stroke="#000000" stroke-width="0.100" />
<line x1="9.150" y1="8.700" x2="10.350" y2="10.000" stroke="#000000" stroke-width="0.100" />
<text x="9.150" y="11.195"  fill="#000000" text-anchor="middle" font-size="0.80" font-family="sans" font-style="normal" font-weight="400">
User</text>
<line x1="17.621" y1="6.017" x2="10.400" y2="6.000" stroke="#000000" stroke-width="0.100" />
<polygon fill="#000000" stroke="none" stroke-width="0.100" points="17.621,6.267 18.421,6.019 17.622,5.767 "/>
<polygon fill="none" stroke="#000000" stroke-width="0.100"  points="17.621,6.267 18.421,6.019 17.622,5.767 "/>
<text x="14.498" y="5.766"  fill="#000000" text-anchor="middle" font-size="0.80" font-family="sans" font-style="normal" font-weight="400">
Authenticate</text>
<rect x="16.150" y="3.169" width="5.343" height="1.400" fill="#FFFFFF" stroke="none" stroke-width="0"/>
<rect x="16.150" y="3.169" width="5.343" height="1.400" fill="none" stroke="#000000" stroke-width="0.100" />
<text x="18.821" y="4.119"  fill="#000000" text-anchor="middle" font-size="1.00" font-family="sans" font-style="normal" font-weight="700">
Webserver</text>
<rect x="23.715" y="3.169" width="3.503" height="1.400" fill="#FFFFFF" stroke="none" stroke-width="0"/>
<rect x="23.715" y="3.169" width="3.503" height="1.400" fill="none" stroke="#000000" stroke-width="0.100" />
<text x="25.466" y="4.119"  fill="#000000" text-anchor="middle" font-size="1.00" font-family="sans" font-style="normal" font-weight="700">
Broker</text>
<line x1="31.904" y1="4.569" x2="31.904" y2="7.044" stroke="#000000" stroke-width="0.050" stroke-dasharray="0.40,0.40"/>
<line x1="31.904" y1="9.044" x2="31.904" y2="29.869" stroke="#000000" stroke-width="0.050" stroke-dasharray="0.40,0.40"/>
<rect x="31.554" y="7.044" width="0.700" height="2.000" fill="#FFFFFF" stroke="none" stroke-width="0"/>
<rect x="31.554" y="7.044" width="0.700" height="2.000" fill="none" stroke="#000000" stroke-width="0.100" />
<rect x="28.959" y="3.169" width="5.890" height="1.400" fill="#FFFFFF" stroke="none" stroke-width="0"/>
<rect x="28.959" y="3.169" width="5.890" height="1.400" fill="none" stroke="#000000" stroke-width="0.100" />
<text x="31.904" y="4.119"  fill="#000000" text-anchor="middle" font-size="1.00" font-family="sans" font-style="normal" font-weight="700">
UserService</text>
<line x1="20.021" y1="9.021" x2="31.554" y2="9.044" stroke="#000000" stroke-width="0.100" stroke-dasharray="0.40,0.40"/>
<polygon fill="#000000" stroke="none" stroke-width="0.100" points="20.022,8.771 19.221,9.019 20.021,9.271 "/>
<polygon fill="none" stroke="#000000" stroke-width="0.100"  points="20.022,8.771 19.221,9.019 20.021,9.271 "/>
<line x1="17.654" y1="10.784" x2="10.400" y2="8.700" stroke="#000000" stroke-width="0.100" />
<polygon fill="#000000" stroke="none" stroke-width="0.100" points="17.585,11.024 18.423,11.005 17.723,10.544 "/>
<polygon fill="none" stroke="#000000" stroke-width="0.100"  points="17.585,11.024 18.423,11.005 17.723,10.544 "/>
<text x="15.044" y="9.403"  fill="#000000" text-anchor="middle" font-size="0.80" font-family="sans" font-style="normal" font-weight="400">
CreateItem</text>
<line x1="39.715" y1="4.569" x2="39.715" y2="12.094" stroke="#000000" stroke-width="0.050" stroke-dasharray="0.40,0.40"/>
<line x1="39.715" y1="14.094" x2="39.715" y2="16.794" stroke="#000000" stroke-width="0.050" stroke-dasharray="0.40,0.40"/>
<rect x="39.365" y="12.094" width="0.700" height="2.000" fill="#FFFFFF" stroke="none" stroke-width="0"/>
<rect x="39.365" y="12.094" width="0.700" height="2.000" fill="none" stroke="#000000" stroke-width="0.100" />
<rect x="37.374" y="3.169" width="4.682" height="1.400" fill="#FFFFFF" stroke="none" stroke-width="0"/>
<rect x="37.374" y="3.169" width="4.682" height="1.400" fill="none" stroke="#000000" stroke-width="0.100" />
<text x="39.715" y="4.119"  fill="#000000" text-anchor="middle" font-size="1.00" font-family="sans" font-style="normal" font-weight="700">
ItemData</text>
<line x1="38.515" y1="12.091" x2="19.171" y2="12.019" stroke="#000000" stroke-width="0.100" />
<polygon fill="#000000" stroke="none" stroke-width="0.100" points="38.514,12.341 39.315,12.094 38.516,11.841 "/>
<polygon fill="none" stroke="#000000" stroke-width="0.100"  points="38.514,12.341 39.315,12.094 38.516,11.841 "/>
<text x="28.819" y="11.944"  fill="#000000" text-anchor="middle" font-size="0.80" font-family="sans" font-style="normal" font-weight="400">
CreateItem</text>
<line x1="20.021" y1="14.022" x2="39.365" y2="14.094" stroke="#000000" stroke-width="0.100" stroke-dasharray="0.40,0.40"/>
<polygon fill="#000000" stroke="none" stroke-width="0.100" points="20.022,13.772 19.221,14.019 20.020,14.272 "/>
<polygon fill="none" stroke="#000000" stroke-width="0.100"  points="20.022,13.772 19.221,14.019 20.020,14.272 "/>
<line x1="24.266" y1="15.997" x2="19.171" y2="16.019" stroke="#000000" stroke-width="0.100" />
<polygon fill="#000000" stroke="none" stroke-width="0.100" points="24.267,16.247 25.066,15.994 24.265,15.747 "/>
<polygon fill="none" stroke="#000000" stroke-width="0.100"  points="24.267,16.247 25.066,15.994 24.265,15.747 "/>
<text x="21.794" y="15.694"  fill="#000000" text-anchor="middle" font-size="0.80" font-family="sans" font-style="normal" font-weight="400">
NotifyAvailable</text>
<line x1="20.021" y1="19.015" x2="25.116" y2="18.994" stroke="#000000" stroke-width="0.100" stroke-dasharray="0.40,0.40"/>
<polygon fill="#000000" stroke="none" stroke-width="0.100" points="20.020,18.765 19.221,19.019 20.022,19.265 "/>
<polygon fill="none" stroke="#000000" stroke-width="0.100"  points="20.020,18.765 19.221,19.019 20.022,19.265 "/>
<line x1="10.981" y1="12.020" x2="18.471" y2="20.019" stroke="#000000" stroke-width="0.100" stroke-dasharray="0.40,0.40"/>
<polygon fill="#000000" stroke="none" stroke-width="0.100" points="11.163,11.850 10.434,11.436 10.799,12.191 "/>
<polygon fill="none" stroke="#000000" stroke-width="0.100"  points="11.163,11.850 10.434,11.436 10.799,12.191 "/>
<text x="15.794" y="15.544"  fill="#000000" text-anchor="middle" font-size="0.80" font-family="sans" font-style="normal" font-weight="400">
Created</text>
<line x1="39.715" y1="14.094" x2="39.715" y2="19.994" stroke="#000000" stroke-width="0.050" stroke-dasharray="0.40,0.40"/>
<line x1="39.715" y1="21.994" x2="39.715" y2="30.494" stroke="#000000" stroke-width="0.050" stroke-dasharray="0.40,0.40"/>
<rect x="39.365" y="19.994" width="0.700" height="2.000" fill="#FFFFFF" stroke="none" stroke-width="0"/>
<rect x="39.365" y="19.994" width="0.700" height="2.000" fill="none" stroke="#000000" stroke-width="0.100" />
<line x1="38.515" y1="19.994" x2="25.816" y2="19.994" stroke="#000000" stroke-width="0.100" />
<polygon fill="#000000" stroke="none" stroke-width="0.100" points="38.515,20.244 39.315,19.994 38.515,19.744 "/>
<polygon fill="none" stroke="#000000" stroke-width="0.100"  points="38.515,20.244 39.315,19.994 38.515,19.744 "/>
<text x="32.306" y="19.494"  fill="#000000" text-anchor="middle" font-size="0.80" font-family="sans" font-style="normal" font-weight="400">
LookupNewItem</text>
<line x1="26.666" y1="21.994" x2="39.365" y2="21.994" stroke="#000000" stroke-width="0.100" stroke-dasharray="0.40,0.40"/>
<polygon fill="#000000" stroke="none" stroke-width="0.100" points="26.666,21.744 25.866,21.994 26.666,22.244 "/>
<polygon fill="none" stroke="#000000" stroke-width="0.100"  points="26.666,21.744 25.866,21.994 26.666,22.244 "/>
</svg>