<?xml version="1.0" encoding="UTF-8" standalone="no"?>
<!DOCTYPE svg PUBLIC "-//W3C//DTD SVG 1.0//EN" "http://www.w3.org/TR/2001/PR-SVG-20010719/DTD/svg10.dtd">
<svg width="62cm" height="22cm" viewBox="157 59 1233 422" xmlns="http://www.w3.org/2000/svg" xmlns:xlink="http://www.w3.org/1999/xlink">
  <g>
    <line style="fill: none; fill-opacity:0; stroke-width: 1; stroke-dasharray: 8; stroke: #000000" x1="376.425" y1="88" x2="376.425" y2="116.624"/>
    <line style="fill: none; fill-opacity:0; stroke-width: 1; stroke-dasharray: 8; stroke: #000000" x1="376.425" y1="356.624" x2="376.425" y2="476.624"/>
    <rect style="fill: #ffffff" x="369.425" y="116.624" width="14" height="240"/>
    <rect style="fill: none; fill-opacity:0; stroke-width: 2; stroke: #000000" x="369.425" y="116.624" width="14" height="240"/>
  </g>
  <g>
    <ellipse style="fill: #ffffff" cx="183" cy="138" rx="6" ry="6"/>
    <ellipse style="fill: none; fill-opacity:0; stroke-width: 2; stroke: #000000" cx="183" cy="138" rx="6" ry="6"/>
    <line style="fill: none; fill-opacity:0; stroke-width: 2; stroke: #000000" x1="159" y1="150" x2="207" y2="150"/>
    <line style="fill: none; fill-opacity:0; stroke-width: 2; stroke: #000000" x1="183" y1="144" x2="183" y2="174"/>
    <line style="fill: none; fill-opacity:0; stroke-width: 2; stroke: #000000" x1="183" y1="174" x2="159" y2="200"/>
    <line style="fill: none; fill-opacity:0; stroke-width: 2; stroke: #000000" x1="183" y1="174" x2="207" y2="200"/>
    <text font-size="12.8" style="fill: #000000;text-anchor:middle;font-family:sans-serif;font-style:normal;font-weight:normal" x="183" y="223.9">
      <tspan x="183" y="223.9">User</tspan>
    </text>
  </g>
  <g>
    <rect style="fill: #ffffff" x="323" y="60" width="106.85" height="28"/>
    <rect style="fill: none; fill-opacity:0; stroke-width: 2; stroke: #000000" x="323" y="60" width="106.85" height="28"/>
    <text font-size="16" style="fill: #000000;text-anchor:middle;font-family:sans-serif;font-style:normal;font-weight:700" x="376.425" y="79">Webserver</text>
  </g>
  <g>
    <rect style="fill: #ffffff" x="440" y="60" width="155.3" height="28"/>
    <rect style="fill: none; fill-opacity:0; stroke-width: 2; stroke: #000000" x="440" y="60" width="155.3" height="28"/>
    <text font-size="16" style="fill: #000000;text-anchor:middle;font-family:sans-serif;font-style:normal;font-weight:700" x="517.65" y="79">RequestHandler</text>
  </g>
  <g>
    <line style="fill: none; fill-opacity:0; stroke-width: 1; stroke-dasharray: 8; stroke: #000000" x1="687.75" y1="88" x2="687.75" y2="156.624"/>
    <line style="fill: none; fill-opacity:0; stroke-width: 1; stroke-dasharray: 8; stroke: #000000" x1="687.75" y1="276.624" x2="687.75" y2="480"/>
    <rect style="fill: #ffffff" x="680.75" y="156.624" width="14" height="120"/>
    <rect style="fill: none; fill-opacity:0; stroke-width: 2; stroke: #000000" x="680.75" y="156.624" width="14" height="120"/>
  </g>
  <g>
    <rect style="fill: #ffffff" x="620" y="60" width="135.5" height="28"/>
    <rect style="fill: none; fill-opacity:0; stroke-width: 2; stroke: #000000" x="620" y="60" width="135.5" height="28"/>
    <text font-size="16" style="fill: #000000;text-anchor:middle;font-family:sans-serif;font-style:normal;font-weight:700" x="687.75" y="79">QueryHandler</text>
  </g>
  <g>
    <line style="fill: none; fill-opacity:0; stroke-width: 1; stroke-dasharray: 8; stroke: #bfbfbf" x1="992.95" y1="88" x2="992.95" y2="480"/>
    <line style="fill: none; fill-opacity:0; stroke-width: 1; stroke-dasharray: 8; stroke: #bfbfbf" x1="992.95" y1="480" x2="992.95" y2="480"/>
  </g>
  <g>
    <rect style="fill: #e5e5e5" x="900" y="60" width="185.9" height="28"/>
    <rect style="fill: none; fill-opacity:0; stroke-width: 2; stroke: #bfbfbf" x="900" y="60" width="185.9" height="28"/>
    <text font-size="16" style="fill: #bfbfbf;text-anchor:middle;font-family:sans-serif;font-style:normal;font-weight:700" x="992.95" y="79">TransactionHandler</text>
  </g>
  <g>
    <line style="fill: none; fill-opacity:0; stroke-width: 1; stroke-dasharray: 8; stroke: #000000" x1="830" y1="88" x2="830" y2="176.624"/>
    <line style="fill: none; fill-opacity:0; stroke-width: 1; stroke-dasharray: 8; stroke: #000000" x1="830" y1="256.624" x2="830" y2="480"/>
    <rect style="fill: #ffffff" x="823" y="176.624" width="14" height="80"/>
    <rect style="fill: none; fill-opacity:0; stroke-width: 2; stroke: #000000" x="823" y="176.624" width="14" height="80"/>
  </g>
  <g>
    <rect style="fill: #ffffff" x="780" y="60" width="100" height="28"/>
    <rect style="fill: none; fill-opacity:0; stroke-width: 2; stroke: #000000" x="780" y="60" width="100" height="28"/>
    <text font-size="16" style="fill: #000000;text-anchor:middle;font-family:sans-serif;font-style:normal;font-weight:700" x="830" y="79">ItemStore</text>
  </g>
  <g>
    <line style="fill: none; fill-opacity:0; stroke-width: 1; stroke-dasharray: 8; stroke: #bfbfbf" x1="1155.88" y1="88" x2="1155.88" y2="480"/>
    <line style="fill: none; fill-opacity:0; stroke-width: 1; stroke-dasharray: 8; stroke: #bfbfbf" x1="1155.88" y1="480" x2="1155.88" y2="480"/>
  </g>
  <g>
    <rect style="fill: #e5e5e5" x="1108.91" y="60" width="93.95" height="28"/>
    <rect style="fill: none; fill-opacity:0; stroke-width: 2; stroke: #bfbfbf" x="1108.91" y="60" width="93.95" height="28"/>
    <text font-size="16" style="fill: #bfbfbf;text-anchor:middle;font-family:sans-serif;font-style:normal;font-weight:700" x="1155.88" y="79">EventLog</text>
  </g>
  <g>
    <line style="fill: none; fill-opacity:0; stroke-width: 1; stroke-dasharray: 8; stroke: #bfbfbf" x1="1307.95" y1="88" x2="1307.95" y2="480"/>
    <line style="fill: none; fill-opacity:0; stroke-width: 1; stroke-dasharray: 8; stroke: #bfbfbf" x1="1307.95" y1="480" x2="1307.95" y2="480"/>
  </g>
  <g>
    <rect style="fill: #e5e5e5" x="1227.4" y="60" width="161.1" height="28"/>
    <rect style="fill: none; fill-opacity:0; stroke-width: 2; stroke: #bfbfbf" x="1227.4" y="60" width="161.1" height="28"/>
    <text font-size="16" style="fill: #bfbfbf;text-anchor:middle;font-family:sans-serif;font-style:normal;font-weight:700" x="1307.95" y="79">PaymentAdapter</text>
  </g>
  <g>
    <line style="fill: none; fill-opacity:0; stroke-width: 1; stroke-dasharray: 8; stroke: #000000" x1="517.65" y1="88" x2="517.65" y2="136.624"/>
    <line style="fill: none; fill-opacity:0; stroke-width: 1; stroke-dasharray: 8; stroke: #000000" x1="517.65" y1="376.624" x2="517.65" y2="476.624"/>
    <rect style="fill: #ffffff" x="510.65" y="136.624" width="14" height="240"/>
    <rect style="fill: none; fill-opacity:0; stroke-width: 2; stroke: #000000" x="510.65" y="136.624" width="14" height="240"/>
  </g>
  <g>
    <line style="fill: none; fill-opacity:0; stroke-width: 2; stroke: #000000" x1="493.65" y1="136.624" x2="383.425" y2="136.624"/>
    <polygon style="fill: #000000" points="493.65,141.624 509.65,136.624 493.65,131.624 "/>
    <polygon style="fill: none; fill-opacity:0; stroke-width: 2; stroke: #000000" points="493.65,141.624 509.65,136.624 493.65,131.624 "/>
    <text font-size="12.7998" style="fill: #000000;text-anchor:middle;font-family:sans-serif;font-style:normal;font-weight:normal" x="447.038" y="146.624">CreateItem</text>
  </g>
  <g>
    <line style="fill: none; fill-opacity:0; stroke-width: 2; stroke: #000000" x1="663.75" y1="156.624" x2="524.65" y2="156.624"/>
    <polygon style="fill: #000000" points="663.75,161.624 679.75,156.624 663.75,151.624 "/>
    <polygon style="fill: none; fill-opacity:0; stroke-width: 2; stroke: #000000" points="663.75,161.624 679.75,156.624 663.75,151.624 "/>
    <text font-size="12.7998" style="fill: #000000;text-anchor:middle;font-family:sans-serif;font-style:normal;font-weight:normal" x="602.7" y="166.624">CreateItem</text>
  </g>
  <g>
    <line style="fill: none; fill-opacity:0; stroke-width: 2; stroke: #000000" x1="806" y1="176.624" x2="694.75" y2="176.624"/>
    <polygon style="fill: #000000" points="806,181.624 822,176.624 806,171.624 "/>
    <polygon style="fill: none; fill-opacity:0; stroke-width: 2; stroke: #000000" points="806,181.624 822,176.624 806,171.624 "/>
    <text font-size="12.7998" style="fill: #000000;text-anchor:middle;font-family:sans-serif;font-style:normal;font-weight:normal" x="758.875" y="186.624">CreateItem</text>
  </g>
  <g>
    <line style="fill: none; fill-opacity:0; stroke-width: 2; stroke-dasharray: 8; stroke: #000000" x1="711.75" y1="256.624" x2="823" y2="256.624"/>
    <polygon style="fill: #000000" points="711.75,251.624 695.75,256.624 711.75,261.624 "/>
    <polygon style="fill: none; fill-opacity:0; stroke-width: 2; stroke: #000000" points="711.75,251.624 695.75,256.624 711.75,261.624 "/>
  </g>
  <g>
    <line style="fill: none; fill-opacity:0; stroke-width: 2; stroke-dasharray: 8; stroke: #000000" x1="541.65" y1="276.624" x2="680.75" y2="276.624"/>
    <polygon style="fill: #000000" points="541.65,271.624 525.65,276.624 541.65,281.624 "/>
    <polygon style="fill: none; fill-opacity:0; stroke-width: 2; stroke: #000000" points="541.65,271.624 525.65,276.624 541.65,281.624 "/>
  </g>
  <g>
    <line style="fill: none; fill-opacity:0; stroke-width: 2; stroke-dasharray: 8; stroke: #000000" x1="400.425" y1="296.624" x2="510.65" y2="296.624"/>
    <polygon style="fill: #000000" points="400.425,291.624 384.425,296.624 400.425,301.624 "/>
    <polygon style="fill: none; fill-opacity:0; stroke-width: 2; stroke: #000000" points="400.425,291.624 384.425,296.624 400.425,301.624 "/>
  </g>
  <g>
    <line style="fill: none; fill-opacity:0; stroke-width: 2; stroke: #000000" x1="353.099" y1="121.363" x2="220" y2="160"/>
    <polygon style="fill: #000000" points="354.493,126.165 368.465,116.902 351.705,116.561 "/>
    <polygon style="fill: none; fill-opacity:0; stroke-width: 2; stroke: #000000" points="354.493,126.165 368.465,116.902 351.705,116.561 "/>
    <text font-size="12.7998" style="fill: #000000;text-anchor:middle;font-family:sans-serif;font-style:normal;font-weight:normal" x="280" y="120">CreateItem</text>
  </g>
  <g>
    <line style="fill: none; fill-opacity:0; stroke-width: 2; stroke-dasharray: 8; stroke: #000000" x1="233.401" y1="230.46" x2="369.425" y2="336.624"/>
    <polygon style="fill: #000000" points="236.478,226.518 220.788,220.615 230.325,234.401 "/>
    <polygon style="fill: none; fill-opacity:0; stroke-width: 2; stroke: #000000" points="236.478,226.518 220.788,220.615 230.325,234.401 "/>
  </g>
</svg>
