<?xml version="1.0" encoding="UTF-8" standalone="no"?>
<!DOCTYPE svg PUBLIC "-//W3C//DTD SVG 1.0//EN" "http://www.w3.org/TR/2001/PR-SVG-20010719/DTD/svg10.dtd">
<svg width="62cm" height="35cm" viewBox="114 -421 1229 682" xmlns="http://www.w3.org/2000/svg" xmlns:xlink="http://www.w3.org/1999/xlink">
  <g>
    <line style="fill: none; fill-opacity:0; stroke-width: 1; stroke-dasharray: 8; stroke: #000000" x1="329.025" y1="-392" x2="329.025" y2="-360"/>
    <line style="fill: none; fill-opacity:0; stroke-width: 1; stroke-dasharray: 8; stroke: #000000" x1="329.025" y1="-80" x2="329.025" y2="-3.3764"/>
    <rect style="fill: #ffffff" x="322.025" y="-360" width="14" height="280"/>
    <rect style="fill: none; fill-opacity:0; stroke-width: 2; stroke: #000000" x="322.025" y="-360" width="14" height="280"/>
  </g>
  <g>
    <ellipse style="fill: #ffffff" cx="140" cy="-116" rx="6" ry="6"/>
    <ellipse style="fill: none; fill-opacity:0; stroke-width: 2; stroke: #000000" cx="140" cy="-116" rx="6" ry="6"/>
    <line style="fill: none; fill-opacity:0; stroke-width: 2; stroke: #000000" x1="116" y1="-104" x2="164" y2="-104"/>
    <line style="fill: none; fill-opacity:0; stroke-width: 2; stroke: #000000" x1="140" y1="-110" x2="140" y2="-80"/>
    <line style="fill: none; fill-opacity:0; stroke-width: 2; stroke: #000000" x1="140" y1="-80" x2="116" y2="-54"/>
    <line style="fill: none; fill-opacity:0; stroke-width: 2; stroke: #000000" x1="140" y1="-80" x2="164" y2="-54"/>
    <text font-size="12.8" style="fill: #000000;text-anchor:middle;font-family:sans-serif;font-style:normal;font-weight:normal" x="140" y="-30.1">
      <tspan x="140" y="-30.1">User</tspan>
    </text>
  </g>
  <g>
    <rect style="fill: #ffffff" x="275.6" y="-420" width="106.85" height="28"/>
    <rect style="fill: none; fill-opacity:0; stroke-width: 2; stroke: #000000" x="275.6" y="-420" width="106.85" height="28"/>
    <text font-size="16" style="fill: #000000;text-anchor:middle;font-family:sans-serif;font-style:normal;font-weight:700" x="329.025" y="-401">Webserver</text>
  </g>
  <g>
    <rect style="fill: #ffffff" x="392.6" y="-420" width="155.3" height="28"/>
    <rect style="fill: none; fill-opacity:0; stroke-width: 2; stroke: #000000" x="392.6" y="-420" width="155.3" height="28"/>
    <text font-size="16" style="fill: #000000;text-anchor:middle;font-family:sans-serif;font-style:normal;font-weight:700" x="470.25" y="-401">RequestHandler</text>
  </g>
  <g>
    <line style="fill: none; fill-opacity:0; stroke-width: 1; stroke-dasharray: 8; stroke: #000000" x1="640.35" y1="-392" x2="640.35" y2="-320"/>
    <line style="fill: none; fill-opacity:0; stroke-width: 1; stroke-dasharray: 8; stroke: #000000" x1="640.35" y1="-240" x2="640.35" y2="260"/>
    <rect style="fill: #ffffff" x="633.35" y="-320" width="14" height="80"/>
    <rect style="fill: none; fill-opacity:0; stroke-width: 2; stroke: #000000" x="633.35" y="-320" width="14" height="80"/>
  </g>
  <g>
    <rect style="fill: #ffffff" x="572.6" y="-420" width="135.5" height="28"/>
    <rect style="fill: none; fill-opacity:0; stroke-width: 2; stroke: #000000" x="572.6" y="-420" width="135.5" height="28"/>
    <text font-size="16" style="fill: #000000;text-anchor:middle;font-family:sans-serif;font-style:normal;font-weight:700" x="640.35" y="-401">QueryHandler</text>
  </g>
  <g>
    <line style="fill: none; fill-opacity:0; stroke-width: 1; stroke-dasharray: 8; stroke: #000000" x1="945.55" y1="-392" x2="945.55" y2="-220"/>
    <line style="fill: none; fill-opacity:0; stroke-width: 1; stroke-dasharray: 8; stroke: #000000" x1="945.55" y1="-140" x2="945.55" y2="-100"/>
    <rect style="fill: #ffffff" x="938.55" y="-220" width="14" height="80"/>
    <rect style="fill: none; fill-opacity:0; stroke-width: 2; stroke: #000000" x="938.55" y="-220" width="14" height="80"/>
  </g>
  <g>
    <rect style="fill: #ffffff" x="852.6" y="-420" width="185.9" height="28"/>
    <rect style="fill: none; fill-opacity:0; stroke-width: 2; stroke: #000000" x="852.6" y="-420" width="185.9" height="28"/>
    <text font-size="16" style="fill: #000000;text-anchor:middle;font-family:sans-serif;font-style:normal;font-weight:700" x="945.55" y="-401">TransactionHandler</text>
  </g>
  <g>
    <line style="fill: none; fill-opacity:0; stroke-width: 1; stroke-dasharray: 8; stroke: #000000" x1="782.6" y1="-392" x2="782.6" y2="-300"/>
    <line style="fill: none; fill-opacity:0; stroke-width: 1; stroke-dasharray: 8; stroke: #000000" x1="782.6" y1="-260" x2="782.6" y2="260"/>
    <rect style="fill: #ffffff" x="775.6" y="-300" width="14" height="40"/>
    <rect style="fill: none; fill-opacity:0; stroke-width: 2; stroke: #000000" x="775.6" y="-300" width="14" height="40"/>
  </g>
  <g>
    <rect style="fill: #ffffff" x="732.6" y="-420" width="100" height="28"/>
    <rect style="fill: none; fill-opacity:0; stroke-width: 2; stroke: #000000" x="732.6" y="-420" width="100" height="28"/>
    <text font-size="16" style="fill: #000000;text-anchor:middle;font-family:sans-serif;font-style:normal;font-weight:700" x="782.6" y="-401">ItemStore</text>
  </g>
  <g>
    <line style="fill: none; fill-opacity:0; stroke-width: 1; stroke-dasharray: 8; stroke: #000000" x1="1108.48" y1="-392" x2="1108.48" y2="-200"/>
    <line style="fill: none; fill-opacity:0; stroke-width: 1; stroke-dasharray: 8; stroke: #000000" x1="1108.48" y1="-160" x2="1108.48" y2="-120"/>
    <rect style="fill: #ffffff" x="1101.48" y="-200" width="14" height="40"/>
    <rect style="fill: none; fill-opacity:0; stroke-width: 2; stroke: #000000" x="1101.48" y="-200" width="14" height="40"/>
  </g>
  <g>
    <rect style="fill: #ffffff" x="1061.51" y="-420" width="93.95" height="28"/>
    <rect style="fill: none; fill-opacity:0; stroke-width: 2; stroke: #000000" x="1061.51" y="-420" width="93.95" height="28"/>
    <text font-size="16" style="fill: #000000;text-anchor:middle;font-family:sans-serif;font-style:normal;font-weight:700" x="1108.48" y="-401">EventLog</text>
  </g>
  <g>
    <line style="fill: none; fill-opacity:0; stroke-width: 1; stroke-dasharray: 8; stroke: #000000" x1="1252.55" y1="-396" x2="1252.55" y2="80"/>
    <line style="fill: none; fill-opacity:0; stroke-width: 1; stroke-dasharray: 8; stroke: #000000" x1="1252.55" y1="120" x2="1252.55" y2="260"/>
    <rect style="fill: #ffffff" x="1245.55" y="80" width="14" height="40"/>
    <rect style="fill: none; fill-opacity:0; stroke-width: 2; stroke: #000000" x="1245.55" y="80" width="14" height="40"/>
  </g>
  <g>
    <rect style="fill: #ffffff" x="1180" y="-420" width="161.1" height="28"/>
    <rect style="fill: none; fill-opacity:0; stroke-width: 2; stroke: #000000" x="1180" y="-420" width="161.1" height="28"/>
    <text font-size="16" style="fill: #000000;text-anchor:middle;font-family:sans-serif;font-style:normal;font-weight:700" x="1260.55" y="-401">PaymentAdapter</text>
  </g>
  <g>
    <line style="fill: none; fill-opacity:0; stroke-width: 1; stroke-dasharray: 8; stroke: #000000" x1="470.25" y1="-392" x2="470.25" y2="-340"/>
    <line style="fill: none; fill-opacity:0; stroke-width: 1; stroke-dasharray: 8; stroke: #000000" x1="470.25" y1="-100" x2="470.25" y2="-3.3764"/>
    <rect style="fill: #ffffff" x="463.25" y="-340" width="14" height="240"/>
    <rect style="fill: none; fill-opacity:0; stroke-width: 2; stroke: #000000" x="463.25" y="-340" width="14" height="240"/>
  </g>
  <g>
    <line style="fill: none; fill-opacity:0; stroke-width: 2; stroke: #000000" x1="446.25" y1="-340" x2="336.025" y2="-340"/>
    <polygon style="fill: #000000" points="446.25,-335 462.25,-340 446.25,-345 "/>
    <polygon style="fill: none; fill-opacity:0; stroke-width: 2; stroke: #000000" points="446.25,-335 462.25,-340 446.25,-345 "/>
    <text font-size="12.7998" style="fill: #000000;text-anchor:middle;font-family:sans-serif;font-style:normal;font-weight:normal" x="399.637" y="-330">LookupItem</text>
  </g>
  <g>
    <line style="fill: none; fill-opacity:0; stroke-width: 2; stroke: #000000" x1="616.35" y1="-320" x2="477.25" y2="-320"/>
    <polygon style="fill: #000000" points="616.35,-315 632.35,-320 616.35,-325 "/>
    <polygon style="fill: none; fill-opacity:0; stroke-width: 2; stroke: #000000" points="616.35,-315 632.35,-320 616.35,-325 "/>
    <text font-size="12.7998" style="fill: #000000;text-anchor:middle;font-family:sans-serif;font-style:normal;font-weight:normal" x="555.3" y="-310">LookupItem</text>
  </g>
  <g>
    <line style="fill: none; fill-opacity:0; stroke-width: 2; stroke: #000000" x1="758.6" y1="-300" x2="647.35" y2="-300"/>
    <polygon style="fill: #000000" points="758.6,-295 774.6,-300 758.6,-305 "/>
    <polygon style="fill: none; fill-opacity:0; stroke-width: 2; stroke: #000000" points="758.6,-295 774.6,-300 758.6,-305 "/>
    <text font-size="12.7998" style="fill: #000000;text-anchor:middle;font-family:sans-serif;font-style:normal;font-weight:normal" x="711.475" y="-290">LookupItem</text>
  </g>
  <g>
    <line style="fill: none; fill-opacity:0; stroke-width: 2; stroke-dasharray: 8; stroke: #000000" x1="664.35" y1="-260" x2="775.6" y2="-260"/>
    <polygon style="fill: #000000" points="664.35,-265 648.35,-260 664.35,-255 "/>
    <polygon style="fill: none; fill-opacity:0; stroke-width: 2; stroke: #000000" points="664.35,-265 648.35,-260 664.35,-255 "/>
  </g>
  <g>
    <line style="fill: none; fill-opacity:0; stroke-width: 2; stroke-dasharray: 8; stroke: #000000" x1="494.25" y1="-240" x2="633.35" y2="-240"/>
    <polygon style="fill: #000000" points="494.25,-245 478.25,-240 494.25,-235 "/>
    <polygon style="fill: none; fill-opacity:0; stroke-width: 2; stroke: #000000" points="494.25,-245 478.25,-240 494.25,-235 "/>
  </g>
  <g>
    <line style="fill: none; fill-opacity:0; stroke-width: 2; stroke-dasharray: 8; stroke: #000000" x1="353.025" y1="-120" x2="463.25" y2="-120"/>
    <polygon style="fill: #000000" points="353.025,-125 337.025,-120 353.025,-115 "/>
    <polygon style="fill: none; fill-opacity:0; stroke-width: 2; stroke: #000000" points="353.025,-125 337.025,-120 353.025,-115 "/>
  </g>
  <g>
    <line style="fill: none; fill-opacity:0; stroke-width: 2; stroke: #000000" x1="312.325" y1="-346.039" x2="165" y2="-134"/>
    <polygon style="fill: #000000" points="316.431,-343.186 321.454,-359.179 308.219,-348.892 "/>
    <polygon style="fill: none; fill-opacity:0; stroke-width: 2; stroke: #000000" points="316.431,-343.186 321.454,-359.179 308.219,-348.892 "/>
    <text font-size="12.7998" style="fill: #000000;text-anchor:middle;font-family:sans-serif;font-style:normal;font-weight:normal" x="228.8" y="-265.312">LookupItem</text>
  </g>
  <g>
    <line style="fill: none; fill-opacity:0; stroke-width: 2; stroke-dasharray: 8; stroke: #000000" x1="181.864" y1="-82.1479" x2="322.025" y2="-100"/>
    <polygon style="fill: #000000" points="181.232,-87.1078 165.992,-80.1263 182.496,-77.188 "/>
    <polygon style="fill: none; fill-opacity:0; stroke-width: 2; stroke: #000000" points="181.232,-87.1078 165.992,-80.1263 182.496,-77.188 "/>
  </g>
  <g>
    <line style="fill: none; fill-opacity:0; stroke-width: 2; stroke: #000000" x1="921.55" y1="-220" x2="477.25" y2="-220"/>
    <polygon style="fill: #000000" points="921.55,-215 937.55,-220 921.55,-225 "/>
    <polygon style="fill: none; fill-opacity:0; stroke-width: 2; stroke: #000000" points="921.55,-215 937.55,-220 921.55,-225 "/>
    <text font-size="12.7998" style="fill: #000000;text-anchor:middle;font-family:sans-serif;font-style:normal;font-weight:normal" x="707.9" y="-210">LookupStatus</text>
  </g>
  <g>
    <line style="fill: none; fill-opacity:0; stroke-width: 2; stroke: #000000" x1="1084.48" y1="-200" x2="952.55" y2="-200"/>
    <polygon style="fill: #000000" points="1084.48,-195 1100.48,-200 1084.48,-205 "/>
    <polygon style="fill: none; fill-opacity:0; stroke-width: 2; stroke: #000000" points="1084.48,-195 1100.48,-200 1084.48,-205 "/>
    <text font-size="12.7998" style="fill: #000000;text-anchor:middle;font-family:sans-serif;font-style:normal;font-weight:normal" x="1027.02" y="-190">LookupStatus</text>
  </g>
  <g>
    <line style="fill: none; fill-opacity:0; stroke-width: 2; stroke-dasharray: 8; stroke: #000000" x1="969.55" y1="-160" x2="1101.48" y2="-160"/>
    <polygon style="fill: #000000" points="969.55,-165 953.55,-160 969.55,-155 "/>
    <polygon style="fill: none; fill-opacity:0; stroke-width: 2; stroke: #000000" points="969.55,-165 953.55,-160 969.55,-155 "/>
  </g>
  <g>
    <line style="fill: none; fill-opacity:0; stroke-width: 2; stroke-dasharray: 8; stroke: #000000" x1="494.25" y1="-140" x2="938.55" y2="-140"/>
    <polygon style="fill: #000000" points="494.25,-145 478.25,-140 494.25,-135 "/>
    <polygon style="fill: none; fill-opacity:0; stroke-width: 2; stroke: #000000" points="494.25,-145 478.25,-140 494.25,-135 "/>
  </g>
  <g>
    <line style="fill: none; fill-opacity:0; stroke-width: 1; stroke-dasharray: 8; stroke: #000000" x1="329.025" y1="-80" x2="329.025" y2="-40"/>
    <line style="fill: none; fill-opacity:0; stroke-width: 1; stroke-dasharray: 8; stroke: #000000" x1="329.025" y1="200" x2="329.025" y2="260"/>
    <rect style="fill: #ffffff" x="322.025" y="-40" width="14" height="240"/>
    <rect style="fill: none; fill-opacity:0; stroke-width: 2; stroke: #000000" x="322.025" y="-40" width="14" height="240"/>
  </g>
  <g>
    <line style="fill: none; fill-opacity:0; stroke-width: 1; stroke-dasharray: 8; stroke: #000000" x1="470.25" y1="-100" x2="470.25" y2="-20"/>
    <line style="fill: none; fill-opacity:0; stroke-width: 1; stroke-dasharray: 8; stroke: #000000" x1="470.25" y1="180" x2="470.25" y2="260"/>
    <rect style="fill: #ffffff" x="463.25" y="-20" width="14" height="200"/>
    <rect style="fill: none; fill-opacity:0; stroke-width: 2; stroke: #000000" x="463.25" y="-20" width="14" height="200"/>
  </g>
  <g>
    <line style="fill: none; fill-opacity:0; stroke-width: 1; stroke-dasharray: 8; stroke: #000000" x1="945.55" y1="-140" x2="945.55" y2="0"/>
    <line style="fill: none; fill-opacity:0; stroke-width: 1; stroke-dasharray: 8; stroke: #000000" x1="945.55" y1="160" x2="945.55" y2="260"/>
    <rect style="fill: #ffffff" x="938.55" y="0" width="14" height="160"/>
    <rect style="fill: none; fill-opacity:0; stroke-width: 2; stroke: #000000" x="938.55" y="0" width="14" height="160"/>
  </g>
  <g>
    <line style="fill: none; fill-opacity:0; stroke-width: 1; stroke-dasharray: 8; stroke: #000000" x1="1108.48" y1="-160" x2="1108.48" y2="20"/>
    <line style="fill: none; fill-opacity:0; stroke-width: 1; stroke-dasharray: 8; stroke: #000000" x1="1108.48" y1="60" x2="1108.48" y2="260"/>
    <rect style="fill: #ffffff" x="1101.48" y="20" width="14" height="40"/>
    <rect style="fill: none; fill-opacity:0; stroke-width: 2; stroke: #000000" x="1101.48" y="20" width="14" height="40"/>
  </g>
  <g>
    <line style="fill: none; fill-opacity:0; stroke-width: 2; stroke: #000000" x1="446.25" y1="-20" x2="336.025" y2="-20"/>
    <polygon style="fill: #000000" points="446.25,-15 462.25,-20 446.25,-25 "/>
    <polygon style="fill: none; fill-opacity:0; stroke-width: 2; stroke: #000000" points="446.25,-15 462.25,-20 446.25,-25 "/>
    <text font-size="12.7998" style="fill: #000000;text-anchor:middle;font-family:sans-serif;font-style:normal;font-weight:normal" x="399.637" y="-10">RentItem</text>
  </g>
  <g>
    <line style="fill: none; fill-opacity:0; stroke-width: 2; stroke: #000000" x1="921.55" y1="0" x2="477.25" y2="0"/>
    <polygon style="fill: #000000" points="921.55,5 937.55,0 921.55,-5 "/>
    <polygon style="fill: none; fill-opacity:0; stroke-width: 2; stroke: #000000" points="921.55,5 937.55,0 921.55,-5 "/>
    <text font-size="12.7998" style="fill: #000000;text-anchor:middle;font-family:sans-serif;font-style:normal;font-weight:normal" x="707.9" y="10">RentItem</text>
  </g>
  <g>
    <line style="fill: none; fill-opacity:0; stroke-width: 2; stroke: #000000" x1="1084.48" y1="20" x2="952.55" y2="20"/>
    <polygon style="fill: #000000" points="1084.48,25 1100.48,20 1084.48,15 "/>
    <polygon style="fill: none; fill-opacity:0; stroke-width: 2; stroke: #000000" points="1084.48,25 1100.48,20 1084.48,15 "/>
    <text font-size="12.7998" style="fill: #000000;text-anchor:middle;font-family:sans-serif;font-style:normal;font-weight:normal" x="1027.02" y="30">LookupStatus</text>
  </g>
  <g>
    <line style="fill: none; fill-opacity:0; stroke-width: 2; stroke-dasharray: 8; stroke: #000000" x1="969.55" y1="60" x2="1101.48" y2="60"/>
    <polygon style="fill: #000000" points="969.55,55 953.55,60 969.55,65 "/>
    <polygon style="fill: none; fill-opacity:0; stroke-width: 2; stroke: #000000" points="969.55,55 953.55,60 969.55,65 "/>
  </g>
  <g>
    <line style="fill: none; fill-opacity:0; stroke-width: 2; stroke: #000000" x1="1228.55" y1="80" x2="952.55" y2="80"/>
    <polygon style="fill: #000000" points="1228.55,85 1244.55,80 1228.55,75 "/>
    <polygon style="fill: none; fill-opacity:0; stroke-width: 2; stroke: #000000" points="1228.55,85 1244.55,80 1228.55,75 "/>
    <text font-size="12.7998" style="fill: #000000;text-anchor:middle;font-family:sans-serif;font-style:normal;font-weight:normal" x="1099.05" y="90">AskForPayment</text>
  </g>
  <g>
    <line style="fill: none; fill-opacity:0; stroke-width: 2; stroke-dasharray: 8; stroke: #000000" x1="969.55" y1="120" x2="1245.55" y2="120"/>
    <polygon style="fill: #000000" points="969.55,115 953.55,120 969.55,125 "/>
    <polygon style="fill: none; fill-opacity:0; stroke-width: 2; stroke: #000000" points="969.55,115 953.55,120 969.55,125 "/>
  </g>
  <g>
    <line style="fill: none; fill-opacity:0; stroke-width: 2; stroke-dasharray: 8; stroke: #000000" x1="494.25" y1="160" x2="938.55" y2="160"/>
    <polygon style="fill: #000000" points="494.25,155 478.25,160 494.25,165 "/>
    <polygon style="fill: none; fill-opacity:0; stroke-width: 2; stroke: #000000" points="494.25,155 478.25,160 494.25,165 "/>
  </g>
  <g>
    <line style="fill: none; fill-opacity:0; stroke-width: 2; stroke-dasharray: 8; stroke: #000000" x1="353.025" y1="180" x2="463.25" y2="180"/>
    <polygon style="fill: #000000" points="353.025,175 337.025,180 353.025,185 "/>
    <polygon style="fill: none; fill-opacity:0; stroke-width: 2; stroke: #000000" points="353.025,175 337.025,180 353.025,185 "/>
  </g>
  <g>
    <line style="fill: none; fill-opacity:0; stroke-width: 2; stroke: #000000" x1="305.551" y1="-44.1965" x2="165" y2="-80"/>
    <polygon style="fill: #000000" points="304.317,-39.3512 321.056,-40.2469 306.785,-49.0418 "/>
    <polygon style="fill: none; fill-opacity:0; stroke-width: 2; stroke: #000000" points="304.317,-39.3512 321.056,-40.2469 306.785,-49.0418 "/>
    <text font-size="12.7998" style="fill: #000000;text-anchor:middle;font-family:sans-serif;font-style:normal;font-weight:normal" x="243.512" y="-50">RentItem</text>
  </g>
  <g>
    <line style="fill: none; fill-opacity:0; stroke-width: 2; stroke-dasharray: 8; stroke: #000000" x1="174.7" y1="-12.039" x2="322.025" y2="200"/>
    <polygon style="fill: #000000" points="178.806,-14.892 165.571,-25.1788 170.594,-9.18607 "/>
    <polygon style="fill: none; fill-opacity:0; stroke-width: 2; stroke: #000000" points="178.806,-14.892 165.571,-25.1788 170.594,-9.18607 "/>
  </g>
</svg>
