<?xml version="1.0" encoding="UTF-8" standalone="no"?>
<!-- Created by diasvg.py -->
<svg width="28.550cm" height="13.450cm" viewBox="32.350 9.550 60.900 23.000"
 xmlns="http://www.w3.org/2000/svg"
 xmlns:xlink="http://www.w3.org/1999/xlink">
<polygon fill="#FFFFFF" stroke="none" stroke-width="0.100" points="32.400,10.450 32.900,9.950 45.250,9.950 45.250,22.450 44.750,22.950 32.400,22.950 32.400,10.450 "/>
<polygon fill="none" stroke="#000000" stroke-width="0.100"  points="32.400,10.450 32.900,9.950 45.250,9.950 45.250,22.450 44.750,22.950 32.400,22.950 32.400,10.450 "/>
<line x1="32.400" y1="10.450" x2="44.750" y2="10.450" stroke="#000000" stroke-width="0.100" />
<line x1="44.750" y1="10.450" x2="45.250" y2="9.950" stroke="#000000" stroke-width="0.100" />
<line x1="44.750" y1="10.450" x2="44.750" y2="22.950" stroke="#000000" stroke-width="0.100" />
<text x="32.900" y="11.545"  fill="#000000" text-anchor="start" font-size="0.80" font-family="sans" font-style="normal" font-weight="400">
Amazon EC2 instances</text>
<line x1="32.900" y1="11.695" x2="40.192" y2="11.695" stroke="#000000" stroke-width="0.050" />
<rect x="33.750" y="15.400" width="9.500" height="4.950" fill="#FFFFFF" stroke="none" stroke-width="0"/>
<rect x="33.750" y="15.400" width="9.500" height="4.950" fill="none" stroke="#000000" stroke-width="0.100" />
<text x="38.500" y="17.875"  fill="#000000" text-anchor="middle" font-size="0.80" font-family="sans" font-style="normal" font-weight="400">
Java 8</text>
<polygon fill="#FFFFFF" stroke="none" stroke-width="0.100" points="49.750,10.100 50.250,9.600 60.750,9.600 60.750,12.200 60.250,12.700 49.750,12.700 49.750,10.100 "/>
<polygon fill="none" stroke="#000000" stroke-width="0.100"  points="49.750,10.100 50.250,9.600 60.750,9.600 60.750,12.200 60.250,12.700 49.750,12.700 49.750,10.100 "/>
<line x1="49.750" y1="10.100" x2="60.250" y2="10.100" stroke="#000000" stroke-width="0.100" />
<line x1="60.250" y1="10.100" x2="60.750" y2="9.600" stroke="#000000" stroke-width="0.100" />
<line x1="60.250" y1="10.100" x2="60.250" y2="12.700" stroke="#000000" stroke-width="0.100" />
<text x="50.250" y="11.195"  fill="#000000" text-anchor="start" font-size="0.80" font-family="sans" font-style="normal" font-weight="400">
Amazon DynamoDB instance</text>
<line x1="50.250" y1="11.345" x2="59.567" y2="11.345" stroke="#000000" stroke-width="0.050" />
<polygon fill="#FFFFFF" stroke="none" stroke-width="0.100" points="49.850,14.100 50.350,13.600 60.850,13.600 60.850,16.100 60.350,16.600 49.850,16.600 49.850,14.100 "/>
<polygon fill="none" stroke="#000000" stroke-width="0.100"  points="49.850,14.100 50.350,13.600 60.850,13.600 60.850,16.100 60.350,16.600 49.850,16.600 49.850,14.100 "/>
<line x1="49.850" y1="14.100" x2="60.350" y2="14.100" stroke="#000000" stroke-width="0.100" />
<line x1="60.350" y1="14.100" x2="60.850" y2="13.600" stroke="#000000" stroke-width="0.100" />
<line x1="60.350" y1="14.100" x2="60.350" y2="16.600" stroke="#000000" stroke-width="0.100" />
<text x="50.350" y="15.195"  fill="#000000" text-anchor="start" font-size="0.80" font-family="sans" font-style="normal" font-weight="400">
Amazon S3 instance</text>
<line x1="50.350" y1="15.345" x2="56.865" y2="15.345" stroke="#000000" stroke-width="0.050" />
<line x1="45.300" y1="14.530" x2="50.822" y2="12.748" stroke="#000000" stroke-width="0.100" />
<line x1="45.298" y1="16.151" x2="49.800" y2="15.783" stroke="#000000" stroke-width="0.100" />
</svg>